<?xml version="1.0" encoding="UTF-8" standalone="no"?>
<!-- Created with Inkscape (http://www.inkscape.org/) -->

<svg
   width="475.03244mm"
   height="120.88464mm"
   viewBox="0 0 475.03244 120.88464"
   version="1.1"
   id="svg1"
   xmlns="http://www.w3.org/2000/svg"
   xmlns:svg="http://www.w3.org/2000/svg">
  <defs
     id="defs1" />
  <g
     id="layer1"
     transform="translate(122.83261,-71.08622)">
    <g
       id="g1"
       transform="matrix(12,0,0,12,-1261.5201,-1446.8143)">
      <path
         d="M 130.77361,136.5623 H 98.593735 c -2.058002,-0.0172 -3.71593,-2.27091 -3.703036,-5.03373 0,-2.7809 1.657175,-5.03686 3.700712,-5.03686 h 32.184529 c 2.04354,0 3.70072,2.25596 3.70072,5.03686 0,2.7809 -1.65718,5.03686 -3.70072,5.03686 h -0.003 z"
         style="fill:#ffc629;fill-opacity:1;stroke-width:2.69675"
         id="path1" />
      <path
         fill="#343333"
         d="m 100.953,129.49386 h -2.123167 c -0.278077,0 -0.503406,-0.22561 -0.503061,-0.50369 0,-0.27809 0.224971,-0.50368 0.503061,-0.50368 h 2.122537 c 0.27778,0 0.50306,0.22559 0.50306,0.50368 0,0.27809 -0.22497,0.50369 -0.50306,0.50369 z m 1.53762,1.67885 h -5.198717 c -0.274965,0 -0.497749,-0.2256 -0.497749,-0.50369 0,-0.27809 0.222784,-0.50368 0.497749,-0.50368 h 5.198397 c 0.27497,0 0.49775,0.22559 0.49775,0.50368 0,0.27809 -0.22278,0.50369 -0.49775,0.50369 z m -0.43901,1.67822 h -4.320075 c -0.276282,-0.002 -0.498855,-0.22709 -0.497124,-0.50337 0,-0.27809 0.222472,-0.50369 0.496812,-0.50369 h 4.320697 c 0.27434,0 0.49681,0.2256 0.49681,0.50369 0,0.27809 -0.22247,0.50368 -0.49681,0.50368 h -3.1e-4 z m -1.33514,1.67885 h -1.649792 c -0.278077,0 -0.503406,-0.22561 -0.503061,-0.50368 0,-0.27809 0.224971,-0.50369 0.503061,-0.50369 h 1.649792 c 0.27746,0 0.50274,0.2256 0.50274,0.50369 0,0.27809 -0.22497,0.50368 -0.50306,0.50368 z m 28.31667,-2.45906 c 0.0422,-0.66679 0.5743,-1.09736 1.36826,-1.09736 0.75178,0 1.28359,0.43057 1.28359,1.04674 0,0.025 -0.0166,0.0506 -0.0591,0.0506 z m 1.42732,2.65904 c 0.78552,0 1.4695,-0.3209 1.86632,-0.87802 0.0594,-0.0844 0.0931,-0.17716 0.0931,-0.26996 0,-0.21091 -0.16061,-0.36308 -0.37152,-0.36308 -0.13498,0 -0.24497,0.0594 -0.3887,0.21091 -0.34589,0.3712 -0.70928,0.54024 -1.17391,0.54024 -0.84458,0 -1.41889,-0.48962 -1.46107,-1.24078 h 3.42863 c 0.0931,0 0.14373,-0.0506 0.14373,-0.13498 v -0.0928 c 0,-1.36764 -0.8702,-2.26221 -2.20441,-2.26221 -1.3342,0 -2.28876,0.90301 -2.28876,2.26221 0,1.3592 0.92894,2.22847 2.35626,2.22847 z m -3.25986,0 c 0.27028,0 0.46463,-0.20279 0.46463,-0.47276 v -5.3515 c 0,-0.27028 -0.20279,-0.47276 -0.46463,-0.47276 -0.26184,0 -0.46463,0.20279 -0.46463,0.47276 v 5.3515 c 0,0.27028 0.2031,0.47276 0.46463,0.47276 z m -5.17684,0 c 0.26184,0 0.44744,-0.20279 0.44744,-0.47276 v -0.26996 c 0.28746,0.47244 0.85302,0.74272 1.5623,0.74272 1.34295,0 2.26346,-0.91989 2.26346,-2.26222 0,-1.34201 -0.91207,-2.22846 -2.18722,-2.22846 -0.71772,0 -1.34295,0.30371 -1.61292,0.79365 v -2.12723 c 3e-4,-0.27028 -0.20279,-0.47276 -0.46463,-0.47276 -0.26184,0 -0.46463,0.20279 -0.46463,0.47276 v 5.3515 c 0,0.27028 0.19435,0.47276 0.4562,0.47276 z m 1.88319,-0.75959 c -0.91238,0 -1.45262,-0.54869 -1.45262,-1.48575 0,-0.93707 0.54055,-1.48575 1.45294,-1.48575 0.91176,0 1.46075,0.54868 1.46075,1.48575 0,0.93706 -0.54056,1.48575 -1.46107,1.48575 z m -12.62589,0.75959 c 0.61648,0 1.1486,-0.27028 1.40201,-0.70085 v 0.22809 c 0,0.26997 0.20278,0.47244 0.46462,0.47244 0.26153,0 0.46463,-0.20278 0.46463,-0.47275 v -3.40988 c 0,-0.27028 -0.2031,-0.47275 -0.46463,-0.47275 -0.26184,0 -0.46462,0.20279 -0.46462,0.47275 v 2.04255 c 0,0.72585 -0.3887,1.12267 -1.09799,1.12267 -0.70928,0 -1.10642,-0.39682 -1.10642,-1.12267 v -2.04255 c 0,-0.27028 -0.2031,-0.47275 -0.46463,-0.47275 -0.26184,0 -0.46462,0.20279 -0.46462,0.47275 v 2.09317 c 0,1.14798 0.61648,1.78946 1.73102,1.78946 z m -6.09735,-3.81514 v -1.6298 c 0,-0.0337 0.0337,-0.0675 0.0675,-0.0675 h 1.80727 c 0.58274,0 0.92895,0.31246 0.92895,0.84427 0,0.53181 -0.34621,0.85239 -0.92895,0.85239 h -1.87476 z m -0.8024,3.67984 h 2.7534 c 1.2161,0 1.97631,-0.6921 1.97631,-1.78946 0,-0.86114 -0.39682,-1.35045 -1.22484,-1.50262 0.65867,-0.13498 1.03862,-0.61617 1.03862,-1.30827 0,-0.95394 -0.70929,-1.56168 -1.8154,-1.56168 h -2.72809 c -0.075,-0.001 -0.13618,0.0599 -0.13529,0.13498 v 5.89176 c 0,0.0762 0.0594,0.13498 0.13529,0.13498 z m 0.8024,-0.86114 v -2.00912 h 1.90851 c 0.66741,0 1.07267,0.39682 1.07267,1.03831 0,0.64148 -0.40526,1.03799 -1.07267,1.03799 h -1.84102 c -0.0361,-0.002 -0.0649,-0.0311 -0.0675,-0.0672 z m 9.43349,0.99612 c 0.27027,0 0.46462,-0.20278 0.46462,-0.47275 v -2.17785 c 0,-0.6921 0.39683,-1.12267 1.04737,-1.12267 0.65023,0 0.99644,0.4137 0.99644,1.12267 v 2.17785 c 0,0.27028 0.20278,0.47275 0.46463,0.47275 0.26184,0 0.46462,-0.20278 0.46462,-0.47275 v -2.17785 c 0,-0.6921 0.39683,-1.12267 1.04706,-1.12267 0.65054,0 0.99675,0.4137 0.99675,1.12267 v 2.17785 c 0,0.27028 0.20247,0.47275 0.46431,0.47275 0.26185,0 0.46463,-0.20278 0.46463,-0.47275 v -2.22847 c 0,-1.12267 -0.62492,-1.78946 -1.67229,-1.78946 -0.69241,0 -1.20734,0.29559 -1.48637,0.84427 -0.2784,-0.56555 -0.75178,-0.84427 -1.44388,-0.84427 -0.63336,0 -1.08955,0.23622 -1.34295,0.70054 v -0.0928 c 0,-0.26997 -0.2031,-0.47244 -0.46463,-0.47244 -0.26184,0 -0.46463,0.20247 -0.46463,0.47244 v 3.4105 c 0,0.27028 0.2031,0.47276 0.46463,0.47276 z"
         id="path1-4"
         style="stroke-width:0.31246" />
    </g>
  </g>
</svg>
